<svg xmlns="http://www.w3.org/2000/svg" id="Layer_2" data-name="Layer 2" viewBox="0 0 381.16 496.67"><defs><style>@keyframes zYPtofdI_draw{to{stroke-dashoffset:0}}@keyframes zYPtofdI_fade{0%,94.11764705882354%{stroke-opacity:1}to{stroke-opacity:0}}@keyframes zYPtofdI_draw_0{0%{stroke-dashoffset:1757}70.58823529411765%,to{stroke-dashoffset:0}}@keyframes zYPtofdI_draw_1{0%{stroke-dashoffset:808}70.58823529411765%,to{stroke-dashoffset:0}}@keyframes zYPtofdI_draw_2{0%{stroke-dashoffset:609}70.58823529411765%,to{stroke-dashoffset:0}}@keyframes zYPtofdI_draw_3{0%{stroke-dashoffset:609}70.58823529411765%,to{stroke-dashoffset:0}}@keyframes zYPtofdI_draw_4{0%{stroke-dashoffset:609}70.58823529411765%,to{stroke-dashoffset:0}}@keyframes zYPtofdI_draw_5{0%{stroke-dashoffset:609}70.58823529411765%,to{stroke-dashoffset:0}}@keyframes zYPtofdI_draw_6{0%{stroke-dashoffset:609}70.58823529411765%,to{stroke-dashoffset:0}}@keyframes zYPtofdI_draw_7{0%{stroke-dashoffset:609}70.58823529411765%,to{stroke-dashoffset:0}}@keyframes zYPtofdI_draw_8{0%{stroke-dashoffset:609}70.58823529411765%,to{stroke-dashoffset:0}}@keyframes zYPtofdI_draw_9{0%{stroke-dashoffset:609}70.58823529411765%,to{stroke-dashoffset:0}}@keyframes zYPtofdI_draw_10{0%{stroke-dashoffset:377}70.58823529411765%,to{stroke-dashoffset:0}}@keyframes zYPtofdI_draw_11{0%{stroke-dashoffset:232}70.58823529411765%,to{stroke-dashoffset:0}}@keyframes zYPtofdI_draw_12{0%{stroke-dashoffset:143}70.58823529411765%,to{stroke-dashoffset:0}}.cls-1{fill:none;stroke:#543f16;stroke-miterlimit:10}</style></defs><g id="eagle-cup-thumbnail"><path id="background-static" d="M0 0h381.16v496.67H0V0Z" style="stroke-dasharray:1756 1758;stroke-dashoffset:1757;animation:zYPtofdI_draw_0 4250ms ease-in-out 0ms infinite,zYPtofdI_fade 4250ms linear 0ms infinite;fill:#997c3a"/><path id="eagle-full-static" d="M188.68 330.93c-19.1-6.9-35.4-19.6-46.7-36-.9 5.2-1.4 10.5-1.4 16 0 17.5 4.7 33.8 12.8 48-34-15-57.8-48.9-57.8-88.5 0-4.1.3-8.1.8-12.1-11.5 8.2-21 18.9-28 31.2-.3.6-.6 1.1-.9 1.6-1.5-6.7-2.3-13.7-2.3-20.8 0-49.7 37.5-90.5 85.7-96 3.6-.4 7.3-.7 11-.7 5.2 0 10.2.5 15.2 1.3 21.3 3.4 40.2 13.7 54.5 28.6 2.5.5 4.9 1.3 7.3 2 17.6 5.7 31.5 19.1 37.7 36.4 2.3 6.4 3.8 13.1 3.8 20.2 0 3.1-.5 6.1-.9 9.1-1.7-10.7-10.9-19-22.1-19-1.2 0-2.4.2-3.5.4 0 0-2.5.6-3.9 1-7.9 2.1-16.2 3.3-24.7 3.3-3.9 0-7.7-.3-11.5-.7-4.8 5-10 9.6-15.8 13.5-4.4 2.3-7.5 4.6-7.5 4.6-8.2 6.4-13.9 17.8-14.5 28.9 0 11.2 5 21 12.7 27.7" style="stroke-dasharray:807 809;stroke-dashoffset:808;animation:zYPtofdI_draw_1 4250ms ease-in-out 0ms infinite,zYPtofdI_fade 4250ms linear 0ms infinite;fill:#bf9b52"/><path d="M258.48 270.43c0 53.4-43.3 96.7-96.7 96.7s-96.7-43.3-96.7-96.7 43.3-96.7 96.7-96.7c53.4 0 96.7 43.3 96.7 96.7Z" class="cls-1" style="stroke-dasharray:608 610;stroke-dashoffset:609;animation:zYPtofdI_draw_2 4250ms ease-in-out 0ms infinite,zYPtofdI_fade 4250ms linear 0ms infinite"/><path d="M288.88 270.43c0 53.4-43.3 96.7-96.7 96.7s-96.7-43.3-96.7-96.7 43.3-96.7 96.7-96.7c53.4 0 96.7 43.3 96.7 96.7Z" class="cls-1" style="stroke-dasharray:608 610;stroke-dashoffset:609;animation:zYPtofdI_draw_3 4250ms ease-in-out 0ms infinite,zYPtofdI_fade 4250ms linear 0ms infinite"/><path d="M333.78 310.93c0 53.4-43.3 96.7-96.7 96.7s-96.7-43.3-96.7-96.7 43.3-96.7 96.7-96.7c53.4 0 96.7 43.3 96.7 96.7Z" class="cls-1" style="stroke-dasharray:608 610;stroke-dashoffset:609;animation:zYPtofdI_draw_4 4250ms ease-in-out 0ms infinite,zYPtofdI_fade 4250ms linear 0ms infinite"/><path d="M322.18 160.43c0 53.4-43.3 96.7-96.7 96.7s-96.7-43.3-96.7-96.7 43.3-96.7 96.7-96.7c53.5 0 96.7 43.3 96.7 96.7Z" class="cls-1" style="stroke-dasharray:608 610;stroke-dashoffset:609;animation:zYPtofdI_draw_5 4250ms ease-in-out 0ms infinite,zYPtofdI_fade 4250ms linear 0ms infinite"/><path d="M240.68 189.83c0 53.4-43.3 96.7-96.7 96.7s-96.7-43.3-96.7-96.7 43.3-96.7 96.7-96.7c53.4 0 96.7 43.3 96.7 96.7Z" class="cls-1" style="stroke-dasharray:608 610;stroke-dashoffset:609;animation:zYPtofdI_draw_6 4250ms ease-in-out 0ms infinite,zYPtofdI_fade 4250ms linear 0ms infinite"/><path d="M318.18 240.13c0 53.4-43.3 96.7-96.7 96.7s-96.7-43.3-96.7-96.7 43.3-96.7 96.7-96.7 96.7 43.3 96.7 96.7Z" class="cls-1" style="stroke-dasharray:608 610;stroke-dashoffset:609;animation:zYPtofdI_draw_7 4250ms ease-in-out 0ms infinite,zYPtofdI_fade 4250ms linear 0ms infinite"/><path d="M249.28 336.83c0 53.4-43.3 96.7-96.7 96.7s-96.7-43.3-96.7-96.7 43.3-96.7 96.7-96.7 96.7 43.3 96.7 96.7Z" class="cls-1" style="stroke-dasharray:608 610;stroke-dashoffset:609;animation:zYPtofdI_draw_8 4250ms ease-in-out 0ms infinite,zYPtofdI_fade 4250ms linear 0ms infinite"/><path d="M261.58 288.03c0 53.4-43.3 96.7-96.7 96.7s-96.7-43.3-96.7-96.7 43.3-96.7 96.7-96.7c53.5 0 96.7 43.3 96.7 96.7Z" class="cls-1" style="stroke-dasharray:608 610;stroke-dashoffset:609;animation:zYPtofdI_draw_9 4250ms ease-in-out 0ms infinite,zYPtofdI_fade 4250ms linear 0ms infinite"/><path d="M281.28 263.33c0 33-26.7 59.7-59.7 59.7s-59.8-26.7-59.8-59.7 26.8-59.7 59.8-59.7 59.7 26.7 59.7 59.7Z" class="cls-1" style="stroke-dasharray:376 378;stroke-dashoffset:377;animation:zYPtofdI_draw_10 4250ms ease-in-out 0ms infinite,zYPtofdI_fade 4250ms linear 0ms infinite"/><path d="M249.28 303.33c0 20.3-16.4 36.7-36.7 36.7s-36.7-16.4-36.7-36.7 16.4-36.7 36.7-36.7 36.7 16.4 36.7 36.7Z" class="cls-1" style="stroke-dasharray:231 233;stroke-dashoffset:232;animation:zYPtofdI_draw_11 4250ms ease-in-out 0ms infinite,zYPtofdI_fade 4250ms linear 0ms infinite"/><path d="M280.18 274.93c0 12.4-10.1 22.5-22.5 22.5s-22.5-10.1-22.5-22.5 10.1-22.5 22.5-22.5 22.5 10.1 22.5 22.5Z" class="cls-1" style="stroke-dasharray:142 144;stroke-dashoffset:143;animation:zYPtofdI_draw_12 4250ms ease-in-out 0ms infinite,zYPtofdI_fade 4250ms linear 0ms infinite"/></g></svg>