<?xml version="1.0" encoding="utf-8"?>
<!-- Generator: Adobe Illustrator 27.6.0, SVG Export Plug-In . SVG Version: 6.00 Build 0)  -->
<svg version="1.1" id="Layer_1" xmlns="http://www.w3.org/2000/svg" xmlns:xlink="http://www.w3.org/1999/xlink" x="0px" y="0px"
	 viewBox="0 0 20 20" style="enable-background:new 0 0 20 20;" xml:space="preserve">
<style type="text/css">
	.st0{fill-rule:evenodd;clip-rule:evenodd;fill:#17143B;}
</style>
<path class="st0" d="M4,9c0-2.8,2.2-5,5-5s5,2.2,5,5s-2.2,5-5,5S4,11.8,4,9z M9,2C5.1,2,2,5.1,2,9s3.1,7,7,7c1.5,0,3-0.5,4.2-1.4
	c0,0,0.1,0.1,0.1,0.1l3,3c0.4,0.4,1,0.4,1.4,0c0.4-0.4,0.4-1,0-1.4l-3-3c0,0-0.1-0.1-0.1-0.1c2.3-3.1,1.7-7.5-1.4-9.8
	C12,2.5,10.5,2,9,2z"/>
</svg>
