<svg xmlns="http://www.w3.org/2000/svg" width="315.089" height="37.281" viewBox="0 0 315.089 37.281">
  <g id="logo-wventures" transform="translate(1.568 2.672)">
    <path id="Path_1249" data-name="Path 1249" d="M13.881,32.134,0,2.325H5.951L16.33,26.294ZM43.04,1.605H37.091L29.165,19.969,21.162,0,18.641,6.228l10.5,25.187Z" transform="translate(0 0.004)" stroke="#000" stroke-width="2"/>
    <path id="Path_1248" data-name="Path 1248" d="M77.3,432.283l-8.4-21.5H63.478l11.572,28.19H79.4l11.572-28.19H85.7Zm224.833-9.773c-5.377-1.286-6.656-2.263-6.656-4.424v-.1c0-1.852,1.693-3.344,4.557-3.344a12.488,12.488,0,0,1,7.578,2.88l2.611-3.7a15.457,15.457,0,0,0-10.139-3.5c-5.53,0-9.524,3.344-9.524,8.128v.1c0,5.144,3.328,6.945,9.267,8.388,5.171,1.184,6.3,2.263,6.3,4.269v.1c0,2.058-1.895,3.5-4.916,3.5a12.912,12.912,0,0,1-8.807-3.652l-2.97,3.5a17.179,17.179,0,0,0,11.62,4.476c5.837,0,9.933-3.138,9.933-8.388v-.1c.055-4.528-2.965-6.688-8.853-8.129Zm-36.508,4.321h13.978v-4.424H265.628V415.1H281.4v-4.424H260.712v28.036H281.6V434.29H265.628Zm-21.352,1.337,7.527,10.6h-5.837l-6.861-9.773H232.96v9.773h-4.916V410.73h12.442c3.482,0,6.247,1.029,8.039,2.778a8.457,8.457,0,0,1,2.3,6.018v.1c.052,4.68-2.713,7.407-6.553,8.539Zm-4.1-3.5c3.482,0,5.735-1.852,5.735-4.681v-.1c0-2.983-2.151-4.629-5.786-4.629h-7.117v9.414Zm-136.047,2.161H118.11v-4.424H104.133V415.1H119.9v-4.424H99.218v28.036h20.891V434.29H104.134Zm45.213,3.292-14.951-19.392h-4.557v28.036h4.813V418.86l15.361,19.908h4.1V410.73H149.3v19.392Zm63.031-3.241c0,5.144-2.663,7.768-7.015,7.768-4.4,0-7.066-2.778-7.066-7.974V410.73h-4.916v16.153c0,8.128,4.608,12.346,11.879,12.346s11.982-4.219,11.982-12.552v-15.9h-4.916v16.1Zm-49.819-11.578h8.858v23.457h4.916V415.305h8.858v-4.579H162.556Z" transform="translate(1.53 -410.314)" stroke="#000" stroke-width="2"/>
  </g>
</svg>
