<svg id="logo-designhotels" xmlns="http://www.w3.org/2000/svg" width="242.747" height="24.441" viewBox="0 0 242.747 24.441">
  <g id="logo" transform="translate(0 0)">
    <g id="DH-mainlogo" transform="translate(0 0)">
      <g id="Group-7" transform="translate(0 0.107)">
        <path id="Fill-1" d="M17.28,11.965c0-3.568.267-6.837-2.4-9.5A8.683,8.683,0,0,0,8.589.2H0V23.935H8.589a8.685,8.685,0,0,0,6.286-2.267c2.671-2.666,2.4-6.135,2.4-9.7m-4.642,0c0,3.6-.134,5.305-1,6.371a4.155,4.155,0,0,1-3.479,1.469H4.642V4.328H8.154A4.155,4.155,0,0,1,11.633,5.8c.87,1.066,1,2.567,1,6.168" transform="translate(0 0.1)" fill-rule="evenodd"/>
        <path id="Fill-3" d="M13.154,23.935H27.791V19.8h-10.3V14.031h8.774V9.9H17.488V4.328h10.3V.2H13.154V23.935" transform="translate(8.122 0.1)" fill-rule="evenodd"/>
        <path id="Fill-4" d="M29.723,6.482c0-1.268,1.068-2.273,3.027-2.273a8,8,0,0,1,4.967,2.044l.278.225,2.583-3.472L40.341,2.8A11.112,11.112,0,0,0,32.846.014C28.4.014,25.172,2.8,25.172,6.878c0,3.926,2.488,5.617,6.894,7.271,3.667,1.349,4.206,2.232,4.206,3.468,0,1.466-1.2,2.5-3.293,2.5a8.55,8.55,0,0,1-5.848-2.559l-.406-.394-2.6,3.548.235.218a12.418,12.418,0,0,0,8.588,3.416c4.474,0,7.843-2.713,7.843-7.062,0-3.58-2.163-5.442-6.5-7.1-3.955-1.524-4.569-2.308-4.569-3.7" transform="translate(14.894 -0.014)" fill-rule="evenodd"/>
        <path id="Fill-5" d="M37.6,23.934h4.642V.2H37.6Z" transform="translate(23.214 0.1)" fill-rule="evenodd"/>
        <path id="Fill-6" d="M59.472,21.559c1.639-1.731,2.271-3.772,2.271-7.242V10H52.753v4.139H57.4v1.478a4.658,4.658,0,0,1-1.072,3.171,4.892,4.892,0,0,1-3.575,1.337,3.684,3.684,0,0,1-2.978-1.238c-.936-1.1-1.139-2.034-1.139-6.7,0-4.7.269-5.572,1.139-6.671a3.665,3.665,0,0,1,2.361-1.225,4.66,4.66,0,0,1,.669-.043,8.022,8.022,0,0,1,4.972,2.043l.276.225,2.584-3.471L60.4,2.84A11.108,11.108,0,0,0,52.9.055l-.482.012a8.921,8.921,0,0,0-6.091,2.652,6.741,6.741,0,0,0-1.937,3.568,32.408,32.408,0,0,0-.4,5.9,32.39,32.39,0,0,0,.4,5.9,6.865,6.865,0,0,0,1.937,3.568,8.748,8.748,0,0,0,6.422,2.6,8.936,8.936,0,0,0,6.72-2.7" transform="translate(27.164 0.011)" fill-rule="evenodd"/>
      </g>
      <path id="Fill-8" d="M71.674,24.876h4.143V1.141H71.173V15.674L61.741,1.141H57.6V24.876h4.642V10.308l9.432,14.568" transform="translate(35.565 -0.734)" fill-rule="evenodd"/>
      <g id="Group-12" transform="translate(124.488)">
        <path id="Fill-9" d="M13.228,24.876H17.87V1.141H13.228v9.7H5.165v-9.7H.522V24.876H5.165V14.939h8.063v9.938" transform="translate(-0.522 -0.734)" fill-rule="evenodd"/>
        <path id="Fill-11" d="M29.379,22.64c2.429-2.423,2.393-5.419,2.393-9.563s.035-7.141-2.393-9.563A8.709,8.709,0,0,0,22.895.889a8.782,8.782,0,0,0-6.516,2.624c-2.429,2.422-2.361,5.421-2.361,9.563s-.067,7.14,2.361,9.563a8.776,8.776,0,0,0,6.516,2.624,8.7,8.7,0,0,0,6.485-2.624m-2.293-9.563c0,4.614-.27,5.725-1.185,6.736a3.9,3.9,0,0,1-3.007,1.282,3.981,3.981,0,0,1-3.039-1.282c-.911-1.011-1.148-2.122-1.148-6.736s.237-5.725,1.148-6.736a3.981,3.981,0,0,1,3.039-1.282A3.9,3.9,0,0,1,25.9,6.341c.914,1.011,1.185,2.124,1.185,6.736" transform="translate(7.81 -0.889)" fill-rule="evenodd"/>
      </g>
      <path id="Fill-13" d="M113.11,5.271h5.658V1.141H102.781v4.13h5.685V24.876h4.644V5.271" transform="translate(63.462 -0.734)" fill-rule="evenodd"/>
      <path id="Fill-14" d="M114.75,24.876h14.638V20.745h-10.3V14.972h8.771V10.841h-8.771V5.269h10.3V1.141H114.75V24.876" transform="translate(70.852 -0.734)" fill-rule="evenodd"/>
      <g id="Group-18" transform="translate(205.163 0.107)">
        <path id="Fill-15" d="M.381,23.935h11.88V19.8H5.025V.2H.381V23.935" transform="translate(-0.381 0.1)" fill-rule="evenodd"/>
        <path id="Fill-17" d="M14.554,6.482c0-1.268,1.07-2.273,3.024-2.273A8,8,0,0,1,22.55,6.254l.278.225,2.581-3.472L25.172,2.8A11.113,11.113,0,0,0,17.679.014C13.237.014,10,2.8,10,6.878c0,3.926,2.488,5.617,6.9,7.271,3.664,1.349,4.2,2.232,4.2,3.468,0,1.466-1.2,2.5-3.291,2.5a8.55,8.55,0,0,1-5.848-2.559l-.357-.327L8.953,20.714l.235.218a12.421,12.421,0,0,0,8.588,3.416c4.474,0,7.843-2.713,7.843-7.062,0-3.58-2.163-5.442-6.5-7.1-3.957-1.524-4.57-2.308-4.57-3.7" transform="translate(4.912 -0.014)" fill-rule="evenodd"/>
      </g>
      <path id="Fill-19" d="M148.96,1.661V1.156h-2.091v.505h.762v2.4h.568v-2.4Zm3.1,2.4v-2.9H151.5l-.757,1.571-.762-1.571h-.561v2.9h.569V2.369l.561,1.1h.385l.558-1.1V4.06Z" transform="translate(90.684 -0.725)" fill-rule="evenodd"/>
    </g>
  </g>
</svg>
