<svg id="logo-mrl" xmlns="http://www.w3.org/2000/svg" xmlns:xlink="http://www.w3.org/1999/xlink" width="123.256" height="50.323" viewBox="0 0 123.256 50.323">
  <defs>
    <clipPath id="clip-path">
      <rect id="Rectangle_1865" data-name="Rectangle 1865" width="123.256" height="50.323"/>
    </clipPath>
  </defs>
  <g id="Group_4440" data-name="Group 4440">
    <g id="Group_4330" data-name="Group 4330" clip-path="url(#clip-path)">
      <path id="Path_4606" data-name="Path 4606" d="M123.247,42.941l-25.689.151c2.486-2.561,4.143-5.575,5.123-14.314l1.431-13.108A40.967,40.967,0,0,1,108.858,0H100.27c-2.26,3.767-3.842,8.362-4.52,15.067L94.469,27.723C93.415,38.195,91.456,41.434,85.806,44.6v5.725h37.441Zm-47.31-4.52L74.2,34.88c-2.26-4.746-4.143-7.307-7.609-8.437,5.2-1.808,8.588-5.424,8.588-11.677C75.184,6.629,69.308,0,57.631,0H43.769V50.323h8.287V7.307h5.123c5.951,0,9.718,2.938,9.718,7.835,0,5.2-3.315,8.136-10.17,8.136h-.452v7.307h2.637c4.219,0,5.575,1.808,7.533,5.951l2.034,4.294c3.013,6.328,6.1,9.492,14.088,9.492V43.016c-3.465-.151-5.123-1.507-6.629-4.6M19.286,23.278,7.533,0H0V50.323H7.684V17.176L19.06,39.023l11.9-22.676V50.323h8.211V0H31.113Z"/>
    </g>
  </g>
</svg>
