<svg id="logo-closer-studio" xmlns="http://www.w3.org/2000/svg" xmlns:xlink="http://www.w3.org/1999/xlink" width="251.851" height="26.004" viewBox="0 0 251.851 26.004">
  <defs>
    <clipPath id="clip-path">
      <rect id="Rectangle_5007" data-name="Rectangle 5007" width="251.851" height="26.004"/>
    </clipPath>
  </defs>
  <g id="Group_5493" data-name="Group 5493" transform="translate(0 0)" clip-path="url(#clip-path)">
    <path id="Path_10529" data-name="Path 10529" d="M0,12.93C0,5.315,4.921,0,12.1,0A11.157,11.157,0,0,1,23.561,9.23H18.354A6.066,6.066,0,0,0,12.1,4.49C7.794,4.49,5.028,7.829,5.028,13s2.766,8.513,7.076,8.513c3.124,0,5.352-1.759,6.286-5.1h5.171C22.341,22.268,18.031,26,12.1,26,4.885,26,0,20.868,0,12.93" transform="translate(0 0)"/>
    <path id="Path_10530" data-name="Path 10530" d="M30.839.48h5.028V20.953h11.35v4.669H30.839Z" transform="translate(-3.143 -0.049)"/>
    <path id="Path_10531" data-name="Path 10531" d="M50.6,12.931C50.6,5.316,55.592,0,62.884,0c7.183,0,12.139,5.209,12.139,12.931C75.023,20.617,70.031,26,62.775,26S50.6,20.8,50.6,12.931M69.995,13c0-5.172-2.8-8.512-7.184-8.512S55.628,7.83,55.628,13s2.8,8.513,7.183,8.513,7.184-3.34,7.184-8.513" transform="translate(-5.157 0)"/>
    <path id="Path_10532" data-name="Path 10532" d="M80.719,17.276h5.028c.108,2.909,1.9,4.382,5.639,4.382,3.053,0,5.064-1.006,5.064-3.125,0-1.544-.754-2.334-4.022-3.088l-3.341-.718c-5.566-1.256-7.722-3.3-7.722-7.291,0-4.1,3.089-7.435,9.41-7.435,6.465,0,9.805,3.16,10.057,8.225H95.8c-.144-2.515-1.759-3.879-5.028-3.879-2.693,0-4.346.9-4.346,2.693,0,1.508.718,2.262,3.951,2.981l3.3.754c5.639,1.293,7.829,3.34,7.829,7.327,0,5.28-4.238,7.9-10.129,7.9-6.572,0-10.56-3.053-10.667-8.728" transform="translate(-8.227 0)"/>
    <path id="Path_10533" data-name="Path 10533" d="M108.079.48h18.174V5.15H113.107v5.28h11.422V15.1H113.107v5.855h13.541v4.669h-18.57Z" transform="translate(-11.016 -0.049)"/>
    <path id="Path_10534" data-name="Path 10534" d="M148.056,25.623l-6.214-8.871h-3.735v8.871h-5.028V.481H143.6c5.567,0,9.195,3.053,9.195,8.189a7.64,7.64,0,0,1-5.208,7.686l6.5,9.267ZM138.107,12.4h5.6c2.657,0,4.058-1.473,4.058-3.735,0-2.191-1.4-3.591-4.058-3.591h-5.6Z" transform="translate(-13.564 -0.049)"/>
    <path id="Path_10535" data-name="Path 10535" d="M169.518,17.783H173c.216,3.3,2.407,4.957,6.753,4.957,3.808,0,6.034-1.186,6.034-4.023,0-2.083-1.15-3.088-4.956-3.987l-3.412-.754c-5.173-1.221-7.184-3.2-7.184-6.932,0-4.13,3.124-7,8.907-7,5.352,0,8.908,2.407,9.41,7.543H185.07c-.359-3.124-2.442-4.31-5.926-4.31s-5.423,1.078-5.423,3.52c0,2.119,1.042,3.124,4.669,3.95l3.413.79c5.352,1.257,7.47,3.269,7.47,7.04,0,4.777-3.771,7.4-9.518,7.4-6.105,0-9.949-2.765-10.236-8.189" transform="translate(-17.278 -0.004)"/>
    <path id="Path_10536" data-name="Path 10536" d="M196.428,21.506V11.27h-2.551V8.252h2.551V3.08h3.341V8.252h3.807V11.27h-3.807v9.518c0,1.509.358,2.335,2.262,2.335a7.011,7.011,0,0,0,1.545-.18v2.945a10.7,10.7,0,0,1-2.371.287c-3.556,0-4.777-1.8-4.777-4.669" transform="translate(-19.761 -0.314)"/>
    <path id="Path_10537" data-name="Path 10537" d="M208.278,19.578V8.839h3.341V19.291c0,3.16,1.041,4.49,3.555,4.49,3.017,0,4.31-2.156,4.31-5.748V8.839h3.34V26.475h-3.2V24.1a5.6,5.6,0,0,1-5.244,2.73c-4.059,0-6.106-2.3-6.106-7.256" transform="translate(-21.229 -0.901)"/>
    <path id="Path_10538" data-name="Path 10538" d="M229.077,16.787c0-5.567,3.162-9.195,7.83-9.195a6.316,6.316,0,0,1,5.388,2.55V.481h3.339V25.623h-3.2V23.252a6.622,6.622,0,0,1-5.53,2.765c-4.74,0-7.83-3.627-7.83-9.23m13.291,0c0-4.059-1.833-6.178-4.994-6.178-3.124,0-4.992,2.119-4.992,6.178S234.25,23,237.373,23c3.161,0,4.994-2.154,4.994-6.213" transform="translate(-23.348 -0.049)"/>
    <path id="Path_10539" data-name="Path 10539" d="M253.4,1.08h3.591V4.565H253.4Zm.108,6.968h3.34V25.684H253.5Z" transform="translate(-25.827 -0.11)"/>
    <path id="Path_10540" data-name="Path 10540" d="M261.836,17.595c0-5.567,3.341-9.195,8.368-9.195s8.334,3.627,8.334,9.195c0,5.6-3.3,9.23-8.334,9.23s-8.368-3.627-8.368-9.23m13.326,0c0-4.059-1.832-6.178-4.957-6.178-3.159,0-4.991,2.119-4.991,6.178s1.832,6.213,4.991,6.213c3.125,0,4.957-2.154,4.957-6.213" transform="translate(-26.687 -0.856)"/>
  </g>
</svg>
