<svg id="logo-schmitzundwiesner" xmlns="http://www.w3.org/2000/svg" width="179.146" height="62.729" viewBox="0 0 179.146 62.729">
  <path id="Path_10541" data-name="Path 10541" d="M373.9,167.063c0,3.884-2.95,6.007-8.061,6.007-6.586,0-9.1-2.949-9.283-6.691h5.4c.18,1.836,1.4,2.735,3.67,2.735,1.621,0,2.52-.54,2.52-1.583,0-1.583-1.727-1.8-4.648-2.447-3.126-.683-6.574-1.834-6.574-5.683,0-3.345,2.88-5.9,8.061-5.9,5.9,0,8.2,2.985,8.385,6.224h-5.4c-.178-1.474-.97-2.266-2.841-2.266-1.62,0-2.448.576-2.448,1.474,0,1.295,1.151,1.331,3.994,1.948C370.306,161.667,373.9,162.889,373.9,167.063Z" transform="translate(-308.958 -136.073)"/>
  <path id="Path_10542" data-name="Path 10542" d="M495.334,157.821c-2.376,0-3.707,2.014-3.707,5.467s1.3,5.468,3.707,5.468c2.3,0,3.095-1.547,3.274-3.2h5.65c-.288,4.346-3.6,7.517-8.889,7.517-5.83,0-9.5-4.028-9.5-9.785,0-5.72,3.67-9.785,9.356-9.785,5.361,0,8.565,3.167,9.033,7.446h-5.648A3.159,3.159,0,0,0,495.334,157.821Z" transform="translate(-418.882 -136.074)"/>
  <path id="Path_10543" data-name="Path 10543" d="M641.709,121.884V134.33h-5.758V123.719c0-2.77-.9-3.7-2.986-3.7-1.835,0-3.346,1.115-3.346,3.668V134.33H623.86V108.61h5.758v9.966h.071a6.293,6.293,0,0,1,5.721-3.238C639.3,115.337,641.709,117.675,641.709,121.884Z" transform="translate(-536.185 -97.91)"/>
  <path id="Path_10544" data-name="Path 10544" d="M792.091,160.042v12.446h-5.829V161.877c0-2.77-.576-3.7-2.627-3.7-1.836,0-2.988,1.115-2.988,3.668v10.648h-5.757V161.877c0-2.77-.576-3.7-2.627-3.7-1.8,0-2.988,1.115-2.988,3.668v10.648H763.52V154.07h5.757v2.663h.071a6.576,6.576,0,0,1,5.758-3.238,4.917,4.917,0,0,1,4.821,3.238H780c1.585-1.836,3.2-3.238,6.19-3.238C789.9,153.5,792.091,155.834,792.091,160.042Z" transform="translate(-654.908 -136.068)"/>
  <path id="Path_10545" data-name="Path 10545" d="M981.138,157.34v18.418H975.38V157.34Z" transform="translate(-835.005 -139.338)"/>
  <path id="Path_10546" data-name="Path 10546" d="M1038.608,132.464v7.62c0,2.088.749,2.088,3.2,2.088v4.316a15.25,15.25,0,0,1-3.562.4c-4.211,0-5.4-2.23-5.4-6.366v-8.054H1030.3v-4.32h2.549V123h5.756v5.143h3.2v4.32Z" transform="translate(-881.694 -110.144)"/>
  <path id="Path_10547" data-name="Path 10547" d="M1132.818,161.729v-.071h-8.243v-4.32h15.441v4.145l-8.96,9.891v.071h9.316v4.316H1123.86v-4.136Z" transform="translate(-961.226 -139.337)"/>
  <path id="Path_10548" data-name="Path 10548" d="M357.594,329.05l2.77,11.223h.071l3.022-11.223H368.5l3.024,11.223h.071l2.77-11.223h5.757l-5.151,18.426h-5.4l-3.563-11.663h-.071l-3.562,11.663h-5.4l-5.145-18.418Z" transform="translate(-304.944 -285.316)"/>
  <path id="Path_10549" data-name="Path 10549" d="M558.878,329.05v18.426H553.12V329.05Z" transform="translate(-476.051 -285.316)"/>
  <path id="Path_10550" data-name="Path 10550" d="M621.246,338.626h5.721c-1.008,3.7-3.886,6.152-8.889,6.152-6.116,0-9.824-4.029-9.824-9.785,0-5.612,3.636-9.785,9.5-9.785,6.3,0,9.5,4.6,9.5,11.3H614.013a3.791,3.791,0,0,0,3.958,3.956C619.948,340.464,620.883,339.526,621.246,338.626Zm-7.234-5.611H621.5a3.745,3.745,0,1,0-7.487,0Z" transform="translate(-522.917 -282.051)"/>
  <path id="Path_10551" data-name="Path 10551" d="M763.766,338.771c0,3.886-2.95,6.008-8.061,6.008-6.586,0-9.1-2.949-9.285-6.691h5.4c.18,1.834,1.4,2.733,3.67,2.733,1.619,0,2.519-.54,2.519-1.583,0-1.583-1.727-1.8-4.648-2.446-3.13-.683-6.586-1.834-6.586-5.684,0-3.345,2.88-5.9,8.061-5.9,5.9,0,8.2,2.985,8.385,6.224h-5.4c-.18-1.476-.972-2.266-2.848-2.266-1.619,0-2.447.576-2.447,1.474,0,1.294,1.151,1.332,3.994,1.948C760.166,333.374,763.766,334.6,763.766,338.771Z" transform="translate(-640.371 -282.051)"/>
  <path id="Path_10552" data-name="Path 10552" d="M895.57,331.756v12.455h-5.757V333.589c0-2.771-.972-3.706-2.879-3.706-2.2,0-3.448,1.115-3.448,3.67v10.655H877.73V325.786h5.757v2.661h.071a6.471,6.471,0,0,1,6.046-3.237C893.159,325.21,895.57,327.548,895.57,331.756Z" transform="translate(-751.996 -282.051)"/>
  <path id="Path_10553" data-name="Path 10553" d="M1024.8,338.626h5.723c-1.008,3.7-3.886,6.152-8.889,6.152-6.116,0-9.824-4.029-9.824-9.785,0-5.612,3.634-9.785,9.5-9.785,6.3,0,9.5,4.6,9.5,11.3h-13.242a3.791,3.791,0,0,0,3.958,3.956C1023.5,340.464,1024.442,339.526,1024.8,338.626Zm-7.232-5.611h7.484a3.742,3.742,0,1,0-7.482,0Z" transform="translate(-865.974 -282.051)"/>
  <path id="Path_10554" data-name="Path 10554" d="M1166.462,327.016v5.035h-.071c-2.952-.54-6.082,1.079-6.082,5v8.569h-5.757V327.2h5.764v3.024h.071a4.959,4.959,0,0,1,4.5-3.345,6.453,6.453,0,0,1,1.577.141Z" transform="translate(-987.316 -283.461)"/>
  <path id="Path_10555" data-name="Path 10555" d="M68.619,112.043h0a13.155,13.155,0,1,1-19.419-.779,12.039,12.039,0,0,0,2.212.392l4.476-6.815a7.223,7.223,0,0,1-3.045.538,7.376,7.376,0,0,1-6.909-5,7.268,7.268,0,0,1,9.331-9.121l3.556-5.412.035.016a13.638,13.638,0,0,0-15.338,22.207,19.537,19.537,0,1,0,28.712-1.5Z" transform="translate(-39.025 -77.373)"/>
  <path id="Path_10556" data-name="Path 10556" d="M176.65,156.88l-14.31,21.778h7.79l3.316-5.046h0l3.6-5.482h0l7.392-11.25Z" transform="translate(-143.854 -138.947)"/>
  <path id="Path_10557" data-name="Path 10557" d="M121.741,45.691l-.035-.016-3.556,5.408.038.012L113,58.988h7.8L135.1,37.21h-7.79Z" transform="translate(-101.911 -37.21)"/>
</svg>
