<svg xmlns="http://www.w3.org/2000/svg" xmlns:xlink="http://www.w3.org/1999/xlink" width="291" height="40" viewBox="0 0 291 40">
  <defs>
    <clipPath id="clip-path">
      <rect id="Rectangle_5004" data-name="Rectangle 5004" width="291" height="40"/>
    </clipPath>
    <clipPath id="clip-path-2">
      <path id="Pfad_2" data-name="Pfad 2" d="M0,4.166H291.018V-35.928H0Z" transform="translate(0 35.928)"/>
    </clipPath>
  </defs>
  <g id="logo-scorpios" clip-path="url(#clip-path)">
    <g id="Gruppe_11" data-name="Gruppe 11" transform="translate(0 0.326)">
      <g id="Gruppe_2" data-name="Gruppe 2" clip-path="url(#clip-path-2)">
        <g id="Gruppe_1" data-name="Gruppe 1" transform="translate(222.437)">
          <path id="Pfad_1" data-name="Pfad 1" d="M1.793,0C-7.955,0-15.453,8.383-15.453,19.214c0,10.883,7.5,19.266,17.246,19.266S19.038,30.1,19.038,19.214C19.038,8.382,11.54,0,1.793,0m0,35.773c-6.936,0-10.4-6.979-10.4-16.558S-5.143,2.707,1.793,2.707,12.2,9.632,12.2,19.214,8.728,35.773,1.793,35.773" transform="translate(15.453)"/>
        </g>
      </g>
      <g id="Gruppe_3" data-name="Gruppe 3" transform="translate(198.393 0.625)">
        <path id="Pfad_3" data-name="Pfad 3" d="M0,0V.521L3.375,4.166v28.9L0,36.71v.52H13.076v-.52L9.7,33.064V4.166L13.076.521V0Z"/>
      </g>
      <g id="Gruppe_10" data-name="Gruppe 10" clip-path="url(#clip-path-2)">
        <g id="Gruppe_4" data-name="Gruppe 4" transform="translate(158.531 0.625)">
          <path id="Pfad_4" data-name="Pfad 4" d="M0,3.814v.521H14.657V3.814L11.283.169V-9.88l.515-.574h4.4c5.248,0,12.887-1.666,12.887-11.247S21.452-32.9,16.2-32.9H0v.521l4.956,3.645V.169ZM11.283-29.614l.515-.574h2.858c5.343,0,8.107,2.24,8.107,8.488S20-13.16,14.657-13.16H11.8l-.515-.573Z" transform="translate(0 32.895)"/>
        </g>
        <g id="Gruppe_5" data-name="Gruppe 5" transform="translate(118.176 0.625)">
          <path id="Pfad_5" data-name="Pfad 5" d="M0,3.813v.521H13.075V3.813L9.7.169V-11.183l.514-.573h3.75L21.368.274l4.36,4.061L31.3,6.573l-9-18.068-3.374-.521c4.734-.885,9.42-4.113,9.42-10.518,0-8.956-7.592-10.362-11.481-10.362H0v.52L3.373-28.73V.169ZM9.7-29.616l.514-.573h5.015c3.8,0,6.8,2.656,6.8,7.967s-2.906,7.76-6.8,7.76H10.215L9.7-15.036Z" transform="translate(0 32.896)"/>
        </g>
        <g id="Gruppe_6" data-name="Gruppe 6" transform="translate(73.648 -0.001)">
          <path id="Pfad_6" data-name="Pfad 6" d="M1.793,4C11.54,4,19.038-4.387,19.038-15.271c0-10.832-7.5-19.214-17.246-19.214S-15.453-26.1-15.453-15.271C-15.453-4.388-7.955,4,1.793,4m0-35.773c6.936,0,10.4,6.925,10.4,16.507S8.728,1.288,1.793,1.288s-10.4-6.979-10.4-16.558,3.468-16.507,10.4-16.507" transform="translate(15.453 34.485)"/>
        </g>
        <g id="Gruppe_7" data-name="Gruppe 7" transform="translate(34.608 0.002)">
          <path id="Pfad_7" data-name="Pfad 7" d="M1.811,3.723C-4.8,3.723-8.78-2.421-8.78-12.835c0-9.424,3.328-16.506,10.591-16.506,5.2,0,7.826,4.426,8.857,8.488h.937V-29.6A20.2,20.2,0,0,0,2-32.047c-9.795,0-17.621,8.383-17.621,19.213,0,11.56,6.326,19.267,17.434,19.267,5.764,0,10.169-3.332,13.262-10.986L13.621-5.7C10.434.91,6.825,3.723,1.811,3.723" transform="translate(15.622 32.047)"/>
        </g>
        <g id="Gruppe_8" data-name="Gruppe 8" transform="translate(0 0)">
          <path id="Pfad_8" data-name="Pfad 8" d="M.735.9c0-4.009,2.718-5.988,5.764-5.988,4.218,0,7.265,3.437,7.922,8.279H15.5V-5.4a17.167,17.167,0,0,0-9.186-2.4C1.3-7.792-5.5-5.136-5.5,2c0,14.007,16.853,9.812,17.48,18.485.251,3.483-1.453,7.5-6.092,7.5-6.609,0-9.326-6.093-10.778-12.81H-6.341V25.429c2.671,3.593,7.92,5.259,12.466,5.259,7.5,0,12.231-5.051,12.231-11.664C18.356,6.267.735,9.6.735.9" transform="translate(6.341 7.792)"/>
        </g>
        <g id="Gruppe_9" data-name="Gruppe 9" transform="translate(266.322 0.233)">
          <path id="Pfad_9" data-name="Pfad 9" d="M.735.9c0-4.009,2.718-5.988,5.765-5.988,4.217,0,7.264,3.437,7.92,8.279H15.5V-5.4a17.159,17.159,0,0,0-9.185-2.4C1.3-7.792-5.5-5.136-5.5,2c0,14.007,16.853,9.812,17.48,18.485.251,3.482-1.453,7.5-6.092,7.5-6.609,0-9.326-6.093-10.778-12.81H-6.341V25.428c2.671,3.593,7.92,5.259,12.466,5.259,7.5,0,12.231-5.051,12.231-11.664C18.356,6.266.735,9.6.735.9" transform="translate(6.341 7.792)"/>
        </g>
      </g>
    </g>
  </g>
</svg>
