<svg id="logo-musee-cantonal" xmlns="http://www.w3.org/2000/svg" xmlns:xlink="http://www.w3.org/1999/xlink" width="309.257" height="96.338" viewBox="0 0 309.257 96.338">
  <defs>
    <clipPath id="clip-path">
      <rect id="Rectangle_5009" data-name="Rectangle 5009" width="309.257" height="96.337" transform="translate(0 0)"/>
    </clipPath>
  </defs>
  <g id="Group_5495" data-name="Group 5495" clip-path="url(#clip-path)">
    <path id="Path_10560" data-name="Path 10560" d="M309.257,19.437C305.5,61.355,287.006,85.9,263.312,96.024V81.073c.111-.073,24.812-10.851,31.355-61.6Z"/>
    <path id="Path_10561" data-name="Path 10561" d="M24.194,86.417h-.029v9.637H22.656V85.315h2.411l4.609,9.432,4.614-9.432H36.7V96.053H35.19V86.417h-.029l-4.684,9.637h-1.6Z"/>
    <path id="Path_10562" data-name="Path 10562" d="M47.635,94.36c0,.564.027,1.1.054,1.693h-1.33c-.032-.369-.061-.8-.061-1.322h-.027a3.64,3.64,0,0,1-3.175,1.6,3.242,3.242,0,0,1-3.527-3.508v-4.24h1.423v4.164a2.285,2.285,0,0,0,2.333,2.574c1.35,0,2.887-.849,2.887-3.213V88.588h1.423Z"/>
    <path id="Path_10563" data-name="Path 10563" d="M51.408,93.929c.125,1.042,1.061,1.4,2.346,1.4,1.6,0,2.377-.508,2.377-1.3,0-1.738-5.887-.416-5.887-3.389,0-1.65,1.523-2.336,3.539-2.336,1.506,0,3.456.388,3.541,2.218H55.945c-.2-.94-1.019-1.206-2.1-1.206-1.277,0-2.179.445-2.179,1.129,0,.521.464.849,1.552,1.056l2.409.462c1.362.27,2.016.846,2.016,1.965,0,1.591-1.293,2.408-4.047,2.408-1.943,0-3.6-.672-3.7-2.408Z"/>
    <path id="Path_10564" data-name="Path 10564" d="M63.922,85.316h1.769L63.456,87.4H62.269ZM66,91.695a2.3,2.3,0,0,0-2.52-2.377,2.5,2.5,0,0,0-2.726,2.377Zm1.512,1.013H60.7a2.633,2.633,0,0,0,2.7,2.619,2.38,2.38,0,0,0,2.438-1.519h1.509c-.288,1.994-2.267,2.529-3.873,2.529-2.67,0-4.193-1.5-4.193-3.865,0-2.723,1.6-4.167,4.236-4.167,2.58,0,4,1.427,4,3.956Z"/>
    <path id="Path_10565" data-name="Path 10565" d="M75.641,91.695a2.306,2.306,0,0,0-2.524-2.377,2.5,2.5,0,0,0-2.728,2.377Zm1.506,1.013H70.333a2.628,2.628,0,0,0,2.7,2.619,2.376,2.376,0,0,0,2.435-1.519h1.509c-.289,1.994-2.261,2.529-3.874,2.529-2.669,0-4.192-1.5-4.192-3.865,0-2.723,1.6-4.167,4.236-4.167,2.583,0,4,1.427,4,3.956Z"/>
    <path id="Path_10566" data-name="Path 10566" d="M80.294,93.929c.135,1.042,1.06,1.4,2.352,1.4,1.594,0,2.377-.508,2.377-1.3,0-1.738-5.887-.416-5.887-3.389,0-1.65,1.523-2.336,3.537-2.336,1.508,0,3.454.388,3.541,2.218H84.838c-.206-.94-1.019-1.206-2.107-1.206-1.277,0-2.172.445-2.172,1.129,0,.521.463.849,1.547,1.056l2.414.462c1.358.27,2.01.846,2.01,1.965,0,1.591-1.289,2.408-4.044,2.408-1.945,0-3.6-.672-3.7-2.408Z"/>
    <path id="Path_10567" data-name="Path 10567" d="M101.644,93.645c-.146,1.888-2.028,2.692-3.886,2.692-2.713,0-4.149-1.589-4.149-4,0-2.515,1.653-4.032,4.279-4.032,1.757,0,3.451.713,3.7,2.662h-1.506A1.93,1.93,0,0,0,97.9,89.318a3.017,3.017,0,0,0-.074,6.009c1.333,0,2.234-.642,2.305-1.682Z"/>
    <path id="Path_10568" data-name="Path 10568" d="M109.465,92.411c-.48,0-1.176,0-2.266.045-1.479.056-2.451.311-2.451,1.4,0,.743.593,1.473,1.97,1.473,1.761,0,2.747-.773,2.747-2.574Zm-5.7-1.876c.175-1.769,2.047-2.23,3.627-2.23,2.016,0,3.5.789,3.5,2.648v3.674a13.933,13.933,0,0,0,.056,1.426h-1.335a9.261,9.261,0,0,1-.056-1.039h-.032a3.363,3.363,0,0,1-3.175,1.322c-1.842,0-3.1-1.041-3.1-2.439,0-1.578,1.159-2.4,3.746-2.468,1.069-.03,1.807-.03,2.479-.03v-.207c0-1.43-.873-1.875-2.281-1.875-1,0-1.843.4-1.912,1.218Z"/>
    <path id="Path_10569" data-name="Path 10569" d="M113.393,90.281c0-.562-.032-1.1-.062-1.693h1.337c.033.371.055.8.055,1.324h.034a3.628,3.628,0,0,1,3.175-1.607,3.244,3.244,0,0,1,3.526,3.509v4.239h-1.424V91.888a2.281,2.281,0,0,0-2.335-2.571c-1.349,0-2.886.846-2.886,3.214v3.522h-1.42Z"/>
    <path id="Path_10570" data-name="Path 10570" d="M125.081,87.22l1.423-.61v1.978h2.145V89.6H126.5v4.3c0,.805.219,1.235,1.1,1.235a8.266,8.266,0,0,0,1.09-.09v1.011a10.57,10.57,0,0,1-1.366.088c-1.433,0-2.248-.477-2.248-2.139V89.6h-1.9V88.588h1.9Z"/>
    <path id="Path_10571" data-name="Path 10571" d="M131.494,92.319a3.045,3.045,0,1,0,3.046-3,2.83,2.83,0,0,0-3.046,3m3.046,4.017c-2.958,0-4.556-1.456-4.556-4.017,0-2.422,1.51-4.014,4.556-4.014,2.956,0,4.554,1.457,4.554,4.014s-1.6,4.017-4.554,4.017"/>
    <path id="Path_10572" data-name="Path 10572" d="M141.208,90.281c0-.562-.029-1.1-.054-1.693h1.33c.03.371.061.8.061,1.324h.029a3.633,3.633,0,0,1,3.174-1.607,3.246,3.246,0,0,1,3.528,3.509v4.239h-1.425V91.888a2.28,2.28,0,0,0-2.335-2.571c-1.348,0-2.887.846-2.887,3.214v3.522h-1.421Z"/>
    <path id="Path_10573" data-name="Path 10573" d="M157.614,92.411c-.478,0-1.174,0-2.262.045-1.479.056-2.453.311-2.453,1.4,0,.743.6,1.473,1.972,1.473,1.759,0,2.743-.773,2.743-2.574Zm-5.7-1.876c.175-1.769,2.045-2.23,3.625-2.23,2.02,0,3.5.789,3.5,2.648v3.674a12.816,12.816,0,0,0,.058,1.426h-1.335a8.6,8.6,0,0,1-.054-1.039h-.036a3.362,3.362,0,0,1-3.173,1.322c-1.843,0-3.1-1.041-3.1-2.439,0-1.578,1.159-2.4,3.745-2.468,1.072-.03,1.81-.03,2.478-.03v-.207c0-1.43-.871-1.875-2.277-1.875-1,0-1.843.4-1.916,1.218Z"/>
    <path id="Path_10574" data-name="Path 10574" d="M169.607,94.36c0,.564.029,1.1.06,1.693h-1.334c-.029-.369-.057-.8-.057-1.322h-.031a3.64,3.64,0,0,1-3.175,1.6,3.239,3.239,0,0,1-3.525-3.508v-4.24h1.419v4.164a2.284,2.284,0,0,0,2.337,2.574c1.348,0,2.885-.849,2.885-3.213V88.588h1.421Z"/>
    <path id="Path_10575" data-name="Path 10575" d="M178.325,88.588h1.811l-3.466,3.568,3.757,3.9H178.4L175.641,93l-2.727,3.049h-1.857l3.627-3.9-3.4-3.568h1.945l2.538,2.751Z"/>
    <path id="Path_10576" data-name="Path 10576" d="M191.075,95.327A3.008,3.008,0,1,0,188.2,92.32a2.756,2.756,0,0,0,2.873,3.007m2.87-10.011h1.423V94.3c0,.506.027,1.144.056,1.753H194c-.027-.312-.056-.653-.056-1.055a4.14,4.14,0,0,1-3.19,1.338,4.016,4.016,0,1,1,0-8.032,4.083,4.083,0,0,1,3.19,1.264Z"/>
    <path id="Path_10577" data-name="Path 10577" d="M205.986,94.36c0,.564.023,1.1.052,1.693h-1.331c-.029-.369-.06-.8-.06-1.322h-.031a3.634,3.634,0,0,1-3.174,1.6,3.238,3.238,0,0,1-3.522-3.508v-4.24h1.421v4.164a2.283,2.283,0,0,0,2.333,2.574c1.35,0,2.887-.849,2.887-3.213V88.588h1.425Z"/>
    <path id="Path_10578" data-name="Path 10578" d="M212.8,85.316h1.665l4.1,9.432,4.09-9.432h1.594L219.44,96.054H217.6Z"/>
    <path id="Path_10579" data-name="Path 10579" d="M230.364,92.411c-.481,0-1.176,0-2.263.045-1.481.056-2.45.311-2.45,1.4,0,.743.593,1.473,1.972,1.473,1.757,0,2.741-.773,2.741-2.574Zm-5.7-1.876c.173-1.769,2.047-2.23,3.624-2.23,2.016,0,3.495.789,3.495,2.648v3.674a12.684,12.684,0,0,0,.063,1.426H230.51a8.218,8.218,0,0,1-.06-1.039h-.028a3.367,3.367,0,0,1-3.175,1.322c-1.847,0-3.106-1.041-3.106-2.439,0-1.578,1.159-2.4,3.743-2.468,1.072-.03,1.814-.03,2.48-.03v-.207c0-1.43-.871-1.875-2.275-1.875-1,0-1.845.4-1.92,1.218Z"/>
    <rect id="Rectangle_5008" data-name="Rectangle 5008" width="1.425" height="10.738" transform="translate(234.395 85.316)"/>
    <path id="Path_10580" data-name="Path 10580" d="M244.258,92.411c-.48,0-1.174,0-2.262.045-1.479.056-2.451.311-2.451,1.4,0,.743.593,1.473,1.972,1.473,1.759,0,2.741-.773,2.741-2.574Zm-5.7-1.876c.173-1.769,2.047-2.23,3.627-2.23,2.018,0,3.5.789,3.5,2.648v3.674a13.872,13.872,0,0,0,.058,1.426H244.4a7.531,7.531,0,0,1-.058-1.039h-.027a3.378,3.378,0,0,1-3.18,1.322c-1.84,0-3.1-1.041-3.1-2.439,0-1.578,1.157-2.4,3.739-2.468,1.074-.03,1.814-.03,2.48-.03v-.207c0-1.43-.869-1.875-2.277-1.875-1.005,0-1.843.4-1.914,1.218Z"/>
    <path id="Path_10581" data-name="Path 10581" d="M248.294,88.589h1.416v7.465h-1.416Zm0-3.273h1.416V86.8h-1.416Z"/>
    <path id="Path_10582" data-name="Path 10582" d="M253.584,93.929c.13,1.042,1.059,1.4,2.35,1.4,1.6,0,2.38-.508,2.38-1.3,0-1.738-5.892-.416-5.892-3.389,0-1.65,1.523-2.336,3.544-2.336,1.5,0,3.447.388,3.532,2.218h-1.374c-.207-.94-1.012-1.206-2.106-1.206-1.277,0-2.173.445-2.173,1.129,0,.521.462.849,1.552,1.056l2.407.462c1.362.27,2.016.846,2.016,1.965,0,1.591-1.289,2.408-4.047,2.408-1.942,0-3.6-.672-3.7-2.408Z"/>
    <path id="Path_10583" data-name="Path 10583" d="M199.272,0c-24.237,0-45.337,18.57-56.317,46.382C131.974,18.579,110.88.019,86.648.019c-23.465,0-43.981,17.4-55.228,43.74C25.4,24.829,15.319,10.513,0,3.968V19.485C16.728,30.057,21.7,54,22.617,81.049c0,.021,0,.041-.005.062h.008v0H38.065l0-.046c1.233-36.506,22.516-67.359,48.587-67.359s47.359,30.866,48.584,67.384h15.45c1.222-36.523,22.508-67.4,48.59-67.4s47.359,30.867,48.585,67.384h15.449C260.012,35.092,232.6,0,199.272,0"/>
  </g>
</svg>
