<svg xmlns="http://www.w3.org/2000/svg" width="210.695" height="47.371" viewBox="0 0 210.695 47.371">
  <g id="logo-noema" transform="translate(-0.9 -0.801)">
    <g id="_Group_" data-name="&lt;Group&gt;" transform="translate(0.9 0.8)">
      <g id="_Group_2" data-name="&lt;Group&gt;" transform="translate(0)">
        <path id="_Compound_Path_" data-name="&lt;Compound Path&gt;" d="M51.9,6.448c-.086-.144-.259-.288-.259-.4a2.006,2.006,0,0,0,.115-.49c0-.173.115-.432.115-.72L51.758,2.9V2.125c0-.893.259-1.268,1.009-1.268l.663.029s.4-.029,1.095-.029h.317c.288,0,2.651.029,3.2.086C58.9,1,59.02,1,59.394,1h5.648a10.048,10.048,0,0,0,1.47-.058l1.21-.058c.49,0,2.1-.029,2.392-.029.288.029.576.029.576.029l.547-.029c.173,0,.346-.058.634-.058h.893q1.7,0,1.7.72V6.16c-.115.778-.346.98-1.239.98H73.11l-1.124-.058H70.575L67.03,7.053c-.4,0-1.412-.058-2.19-.058-.4,0-.634.058-.864.058H63.14L62.017,7H61.21l-1.066.058L59.193,7l-1.7.086H55.015a7.212,7.212,0,0,1-2.709-.231,1.066,1.066,0,0,1-.4-.4ZM33.576,44.253a16.968,16.968,0,0,1,.144,1.959c0,1.095-.663,1.614-2.219,1.614a.916.916,0,0,1-.4-.058h-1.21l-1.7-.086h-.519c-.49,0-1.153,0-2.046.029-.173,0-.259.058-.4.058a3.855,3.855,0,0,0-.576.058c-.951,0-1.441-.461-2.392-2.161a14.707,14.707,0,0,0-1.181-1.729c-.432-.605-.49-.692-1.009-1.5a8.964,8.964,0,0,0-.836-1.354l-.375-.519-.086-.259c-.2-.288-.346-.49-.605-.836l-.317-.4-.144-.317-.663-.807-.288-.4-.2-.288-.259-.4c-.2-.317-.346-.547-.49-.749l-.144-.2a8.948,8.948,0,0,1-.72-1.21l-.2-.375c-.663-1.153-1.21-1.844-1.758-1.844-.663,0-.864.346-.864,2.046v.576l-.058.605v.4c0,.4-.029.749-.029,1.095s-.058.749-.058.893a2.87,2.87,0,0,0,.058.605c.029.461.086.864.086,1.268,0,.115-.058.317-.058.461v.49a3.672,3.672,0,0,0,.058.778c.058.749.115,1.153.115,1.239l-.058,1.124.058,1.037.029.375a6.915,6.915,0,0,1,.115.836.8.8,0,0,1-.058.4c-.058,0-.086.115-.2.259a5.4,5.4,0,0,0-.4.519c-.288.288-.4.4-1.873.4H9.6a6.04,6.04,0,0,1-1.21-.115,13.566,13.566,0,0,0-1.527-.086H6.231l-.807.029H4.473a.93.93,0,0,0-.346.058,5.611,5.611,0,0,1-.922.058c-1.268,0-2.075-.547-2.075-1.412V46.1c0-.2.058-.4,0-.49V41.689c0-2.536.058-4.149.115-4.956l.086-1.153v-.4l-.2-1.268.058-2.968V29.932c0-.288.058-.605.058-.807a2.578,2.578,0,0,0,.058-.547l-.173-5.994V20.509c0-.144-.029-.49-.029-1.009,0-.432-.058-1.009-.058-1.239a1.878,1.878,0,0,1,.058-.519c0-.259.029-.346.029-.461a2.535,2.535,0,0,0-.029-.4l-.058-.749a1.965,1.965,0,0,0,.058-.547,1.572,1.572,0,0,0-.115-.605A4.54,4.54,0,0,1,.9,14.17c0-1.412.346-2.017,1.21-2.017a3.249,3.249,0,0,0,.4.058,2.684,2.684,0,0,0,.749.086c.144,0,.461,0,.893-.029,1.009-.058,2.42-.058,3.631-.058h.807l1.844-.058h.115c1.095,0,1.5.288,2.42,1.556a4.725,4.725,0,0,1,.346.519,6.373,6.373,0,0,1,.547.749q.692,1.066.922,1.354a5.083,5.083,0,0,0,.749,1.153l.605.663.4.72.49.692.317.547.49.72.317.692a17.5,17.5,0,0,0,1.153,1.758c.547.663.807,1.124,1.124,1.527l.4.547.605.922a1.968,1.968,0,0,1,.346.605c.259.4.461.634.605.634.259,0,.4-.2.461-.49l.029-.346.058-.2a.311.311,0,0,0,.058-.2v-.058c0-.144-.058-.346-.058-.519v-.49L23,24.342l-.058-.49c-.058-.058,0-.2.058-.461v-.72l-.115-.634v-.173a1.517,1.517,0,0,1,.058-.547L23,20.855a.916.916,0,0,0,.058-.4v-.173a6.632,6.632,0,0,0,.029-.663l-.029-.4v-.259l-.173-.749-.029-.519v-.432c0-.115-.058-.259-.058-.519V15.669l-.058-.692V14.43a1.207,1.207,0,0,0-.058-.4,3.862,3.862,0,0,1-.029-.576c0-.893.49-1.354,1.441-1.354h.4a12.31,12.31,0,0,1,1.931.173h.749a3.346,3.346,0,0,1,.663-.058,1.272,1.272,0,0,1,.49.058l.922.086h1.095c.058,0,.547-.058,1.412-.058H31.9c.115,0,.2-.029.317-.029.893,0,1.3.547,1.3,1.642a16.2,16.2,0,0,1-.058,1.671v.4c0,.4,0,1.066.058,1.614,0,.49.058.807.058.951V19.3l.058,1.325-.058,1.3-.058,3.141-.086,2.449a3.439,3.439,0,0,0-.058.864,6.618,6.618,0,0,0,.058,1.095L33.461,31v1.873l-.029,1.412v2.161c0,.4.029.749.029,1.009v.893a3.041,3.041,0,0,1,.058.72c0,.49-.058.893-.058,1.037l-.029.4a3.838,3.838,0,0,0-.058.922v.547l.058.951.029.576a6.982,6.982,0,0,0,.115.749Zm47.574-13.8c.029.432.086.951.086,1.095a6.533,6.533,0,0,1-.144,1.066c-.2,1.066-.346,1.815-.461,2.305a3.292,3.292,0,0,0-.2.605l-.2.605-.144.605c-.2.749-.4,1.21-.4,1.268a11.671,11.671,0,0,1-.749,1.614,13.91,13.91,0,0,1-.98,1.47,1.75,1.75,0,0,0-.2.288,4.477,4.477,0,0,1-.4.547,10.943,10.943,0,0,1-1.3,1.383l-.547.547a5.768,5.768,0,0,1-1.931,1.441l-1.5.663a2.319,2.319,0,0,0-.4.259,4.113,4.113,0,0,1-.807.4l-.749.259-1.931.634a2.917,2.917,0,0,1-.893.2,9,9,0,0,0-1.066.173,11.4,11.4,0,0,1-2.478.288h-.692a3.968,3.968,0,0,1-.922-.058h-.749c-.288,0-.49-.029-.663-.029a4.113,4.113,0,0,1-.749-.173q-.375-.058-.749-.144l-.893-.144c-.2-.058-.375-.058-.519-.115l-1.7-.634-.778-.2a5.113,5.113,0,0,1-1.9-1.009,8.292,8.292,0,0,0-.72-.519,5.524,5.524,0,0,1-.951-.605,11.824,11.824,0,0,1-2.046-1.7l-.98-1.153-.49-.576a3.767,3.767,0,0,1-.317-.346,6.965,6.965,0,0,1-.4-.605l-.605-1.095a7.6,7.6,0,0,0-.432-.663,4.9,4.9,0,0,1-.807-1.873,2.212,2.212,0,0,1-.2-.807,13.65,13.65,0,0,1-.375-2.565,4.625,4.625,0,0,0-.086-.864,4.118,4.118,0,0,1-.058-.692,13.572,13.572,0,0,1-.086-1.959v-.576a6.2,6.2,0,0,1,.4-2.363c.2-.634.346-1.21.432-1.556l.058-.346a9.888,9.888,0,0,1,.461-1.412l.346-.72.144-.346.259-.547.749-1.412.576-.605L49.338,18.2a3.168,3.168,0,0,1,.4-.346,4.09,4.09,0,0,0,.663-.72l.49-.605.461-.547,1.066-.663a3.213,3.213,0,0,1,.288-.259,12.06,12.06,0,0,1,3.6-1.815,11.907,11.907,0,0,0,1.21-.4,6.983,6.983,0,0,1,2.766-.576c.49-.058.634-.115.893-.115l.922-.144c.231,0,.605-.058.893-.058a13.9,13.9,0,0,1,1.729.144,2.457,2.457,0,0,0,.432.115c.115,0,.4.058.807.086.807.115,1.527.2,2.161.346a11.011,11.011,0,0,1,2.132.807c.692.317,1.354.605,1.758.778.461.2.749.346.951.432a.4.4,0,0,1,.259.173,12.164,12.164,0,0,1,2.565,2.219l.605.605a1.544,1.544,0,0,0,.317.346,9.646,9.646,0,0,1,1.095,1.153,5.747,5.747,0,0,1,1.009,1.7,9.354,9.354,0,0,0,.72,1.412,11.456,11.456,0,0,1,.807,1.815c.4,1.124.4,2.132.634,4.841l.058.519a1.614,1.614,0,0,0,.058.605,1.842,1.842,0,0,0,.058.4ZM70,29.73a5.511,5.511,0,0,0-.605-2.824c-.058-.144-.086-.231-.144-.346a2.264,2.264,0,0,0-.807-1.21,1.331,1.331,0,0,0-.2-.2l-1.21-1.3c-.058-.115-.259-.2-.749-.4l-.346-.115a1.743,1.743,0,0,0-.317-.144,2.281,2.281,0,0,0-.692-.317c-.375-.086-.4-.029-1.383-.144L63,22.671h-.605a2.548,2.548,0,0,0-.864.115l-.288.086-.663.173a6.589,6.589,0,0,0-.807.346l-.2.144q-.519.3-.605.346a1.749,1.749,0,0,1-.288.2,6.112,6.112,0,0,0-.864.864A12.724,12.724,0,0,0,56.8,26.3a4.252,4.252,0,0,0-.461,1.412,1.115,1.115,0,0,1-.029.259c-.058.317-.115.519-.115.547a7.3,7.3,0,0,0-.259,1.671A5.407,5.407,0,0,0,56.2,31.8l.115.4.2.605.144.547a5.551,5.551,0,0,0,1.354,2.334l1.009.893a1.981,1.981,0,0,1,.461.346,1.625,1.625,0,0,0,.807.317,1.42,1.42,0,0,1,.634.144,3.436,3.436,0,0,0,1.585.288h.231a11.543,11.543,0,0,0,2.075-.086,4.874,4.874,0,0,0,1.066-.461A9.3,9.3,0,0,0,67.29,36.3a12.5,12.5,0,0,0,1.153-1.21,3.352,3.352,0,0,0,.864-1.383l.231-1.037.2-.807A7.708,7.708,0,0,0,70,29.73Zm47.17,13.514a4.09,4.09,0,0,1,.029,1.009l-.086,1.037v.2c0,.115.058.259.058.4,0,1.412-.519,1.931-1.815,1.931a8.965,8.965,0,0,1-1.153-.058,5.973,5.973,0,0,0-.922-.058,5.268,5.268,0,0,0-.807.058c-.692.058-1.268.115-1.614.115-.288,0-.605,0-1.3-.058a11.453,11.453,0,0,0-1.268-.058,13.463,13.463,0,0,0-1.354.058c-1.354.058-2.132.058-2.334.086h-1.239c-.375,0-.72,0-1.181-.029a4.3,4.3,0,0,0-.749-.058H99.822a2.433,2.433,0,0,1-.547-.058H98.18L97,47.826h-.547a.627.627,0,0,0-.461,0H95.24c-1.671,0-2.68-.864-2.68-2.276a3.448,3.448,0,0,1,.058-.692c0-.317.058-.547.058-.807,0-.519-.115-1.758-.2-3.746,0-.231-.058-.432-.058-.605V36.127c0-.144.058-.4.058-.807a3.532,3.532,0,0,0,.086-.749l-.029-.288-.058-.4c0-.317-.058-.461-.058-.864V31.4l-.058-1.21-.029-1.873.086-1.9.115-.663c0-.144.029-.346.029-.605,0-.086-.029-.2-.029-.259l-.058-.807c0-.231,0-.692.058-1.354,0-.605.029-1.614.029-3.026v-.951c0-.807,0-1.47-.029-1.9l-.058-.864a.791.791,0,0,1-.058-.346c0-2.334.749-3.429,2.363-3.429a7.168,7.168,0,0,1,1.066.058h1.815a12.6,12.6,0,0,0,2.276-.115h.259l2.91.115.807-.058.692.058.4-.058h.461l.605-.058.605-.058h2.276l.432.058h.4l1.066.115h.864c.49,0,.951-.058,1.556-.058h.605c1.21,0,1.758.49,1.758,1.5v.663l-.029.605-.058.807v.086a2.511,2.511,0,0,0,.058.576,1.93,1.93,0,0,0,.029.49l.173.72a6.7,6.7,0,0,1,.086.893,2.2,2.2,0,0,1-2.507,2.363c-.173,0-.259-.058-.4-.058h-1.066l-.519-.029h-.029c-.173,0-.605.029-1.066.029a7.4,7.4,0,0,1-.951.058A20.408,20.408,0,0,1,107,20.769c-.461-.058-.778-.115-.922-.115a4.766,4.766,0,0,0-.951.173,2.471,2.471,0,0,0-.807.144,2.141,2.141,0,0,0-.663.49,2.535,2.535,0,0,0-.346.576c0,.086-.058.4-.115.951v.663c0,.692.605,1.153,1.614,1.354l.519.086a8.584,8.584,0,0,0,1.758.115,11.836,11.836,0,0,0,1.354-.058c.605-.058.864-.086,1.153-.086.259,0,.231.029.576.029l.461.058.692.058.259.058h.864l.259-.115a6.5,6.5,0,0,1,.893-.058,1.649,1.649,0,0,1,1.815,1.614c0,.173-.058.375-.058.72,0,.259-.029.49-.029.749v1.614l-.058.49v.864a5.765,5.765,0,0,1-.058.951c-.259,1.47-.893,1.931-2.766,1.931a1.684,1.684,0,0,1-.519-.058h-1.5a1.684,1.684,0,0,0-.519-.058h-.231l-.49.058h-1.354l-1.815-.058h-.605a1.98,1.98,0,0,0-2.161,2.19v.086l.115.346.086.547c.2,1.181,1.47,1.729,4.092,1.729h.605l1.5-.058h1.47l.605.058h.951c.144,0,.317-.058.4-.058l1.527-.058h.2c1.095,0,1.441.173,1.758.778A4.287,4.287,0,0,1,117,41.285v.634a8.23,8.23,0,0,0,.173,1.325ZM166.01,14.631c-.058.634-.144,1.959-.144,4.438,0,.432.029.807.029,1.383v.922a4.475,4.475,0,0,1-.029.663,4.616,4.616,0,0,1-.058.634,18.029,18.029,0,0,0-.115,1.815c0,.605.058,1.325.115,2.219.058.864.086,1.124.086,1.383v.086l-.029.663v.432l-.058.576v.692l.058.749a3.167,3.167,0,0,1,.029.605,2.367,2.367,0,0,0,.058.663c.058.864.058,1.354.058,1.412v.519l.058.634-.058.375v.893l-.115,1.556a2.1,2.1,0,0,0,.058.519v.4a15.4,15.4,0,0,1-.144,1.614,8.683,8.683,0,0,0-.144,1.441,6.43,6.43,0,0,0,.144,1.268c.058.605.144,1.124.144,1.268l-.058.086-.029.951v.922c0,.807-1.124,1.412-2.622,1.412h-.922a8.159,8.159,0,0,0-1.095-.058h-.4l-1.009-.058-1.066-.029-1.066.029h-1.614c-.836,0-1.3-.836-1.3-2.709,0-.259,0-.461.058-1.268.058-1.037.086-1.5.086-2.046a4.259,4.259,0,0,0-.029-.605,8.322,8.322,0,0,1-.058-1.585l.2-1.844c0-.115.029-.375.029-.778v-.836l-.086-1.124c-.058-.807-.259-1.095-.605-1.095a.5.5,0,0,0-.4.2l-.461.749-.2.2-.4.72-.605.692-.231.346a4.377,4.377,0,0,1-.519.519l-.259.231a6.215,6.215,0,0,0-.836,1.066c-.778,1.153-1.21,1.556-1.988,1.556a1.889,1.889,0,0,1-1.7-.807,3.818,3.818,0,0,0-.461-.49l-.4-.461L145,37.337l-.346-.288-.259-.317-.72-.634a3.038,3.038,0,0,1-.605-.778c-.4-.49-.634-.893-.836-1.095a1.117,1.117,0,0,0-.663-.461c-.317,0-.4.2-.548.807l-.115.4-.058.259c-.029.547-.086.864-.086.951v1.009c0,.49.058.951.058,1.412a5.679,5.679,0,0,1,.029.605c0,.058,0,.259-.029.605v.49a3.926,3.926,0,0,1-.115.576,5.123,5.123,0,0,0-.086.836v.115l.029,1.009v.346l.115,1.21v1.3a2.6,2.6,0,0,1,.058.375v.4a1.606,1.606,0,0,1-1.614,1.441h-.058l-.951-.086-2.132-.115h-.346l-1.556.058h-.346a4.2,4.2,0,0,0-.72.058,11.209,11.209,0,0,1-1.268.086c-1.354,0-1.959-.605-1.959-2.017v-.547a9.856,9.856,0,0,0,.058-1.5,9.025,9.025,0,0,0-.058-1.47v-1.7l.058-.519.058-.807.029-.663.058-.634V38c0-.2-.058-.807-.058-1.5-.029-1.009-.086-1.268-.086-1.527v-.144l.058-1.066-.058-2.565c-.058-.115,0-.346.058-.72,0-.4.029-.749.029-1.037a7.556,7.556,0,0,0-.029-.778V28.03l.029-.4a2.181,2.181,0,0,1,.058-.547,8.721,8.721,0,0,0,.058-1.268v-.922l.058-.749a2.739,2.739,0,0,0-.058-.547V22.93c0-1.009-.058-1.7-.058-2.017v-.634l-.058-.375V18.9c0-.692-.029-1.153-.086-1.9l-.058-.807-.029-.663-.058-.663v-.836a1.3,1.3,0,0,1,.231-.864,3.574,3.574,0,0,1,.605-.519,2.144,2.144,0,0,1,1.412-.375h.375c.749,0,1.153.029,1.21.029l.836-.029,1.614-.058c1.009-.058,1.614-.115,1.931-.115.692,0,1.009.346,1.844,1.758.259.4.72,1.21,1.124,1.815a5.3,5.3,0,0,1,.49.72l.663,1.412.317.288a4.7,4.7,0,0,0,.547.807.878.878,0,0,0,.259.375c.231.346.4.547.432.634.115.317.115.317.2.519l.375.288a3.152,3.152,0,0,1,.231.4,6.1,6.1,0,0,0,.663,1.009l.4.461a3.3,3.3,0,0,1,.259.346c1.354,1.671,1.959,2.161,2.449,2.161a1.05,1.05,0,0,0,.605-.144c.173-.144.375-.4.576-.605a3.183,3.183,0,0,1,.432-.663l.2-.346a2.6,2.6,0,0,0,.4-.547.625.625,0,0,1,.173-.2l.144-.2.346-.605.144-.259a1.509,1.509,0,0,0,.317-.547,5.479,5.479,0,0,1,.49-.951l.2-.317a1,1,0,0,0,.259-.432c.058-.115.144-.2.259-.4.288-.519.605-1.009.893-1.614l1.066-2.017a3.951,3.951,0,0,1,.288-.461c.317-.461.461-.749.576-.864l.49-.692.259-.375a1.9,1.9,0,0,1,1.47-.634,6.023,6.023,0,0,1,.836.058c1.729.029,3.141.029,4.236-.058a3.8,3.8,0,0,1,.807-.058c1.354,0,2.334.692,2.334,1.758C166.068,14.055,166.01,14.314,166.01,14.631ZM211.6,46.414c0,1.066-.432,1.354-2.046,1.354h-1.21l-.461.058h-3.285l-.893-.058a14.86,14.86,0,0,1-1.527.058,4.518,4.518,0,0,1-1.3-.2,3.573,3.573,0,0,1-1.412-2.276,2.313,2.313,0,0,1-.144-.634,2.835,2.835,0,0,0-.807-1.268,4,4,0,0,0-.807-.461,1.79,1.79,0,0,0-.605-.144h-2.766l-.461-.058h-1.527a4.049,4.049,0,0,0-.836,0,1.854,1.854,0,0,1-.461.058h-.663a2.668,2.668,0,0,0-.951.288,3.021,3.021,0,0,0-1.095.922,2.288,2.288,0,0,0-.317.547,5.306,5.306,0,0,0-.461,1.47l-.144.807q-.086.144-.288.432a1.329,1.329,0,0,1-.663.461,3.672,3.672,0,0,0-.663.058h-.461l-1.239-.058h-.317c-.259,0-1.354-.058-3.17-.058h-.951a4.19,4.19,0,0,1-.663.058,1.965,1.965,0,0,1-.547.058c-.317,0-.519-.058-1.066-.115a1.649,1.649,0,0,1-1.758-1.758,2.5,2.5,0,0,1,.144-.807l.259-.547.605-2.824.058-.346.231-.807.173-.663c.144-.663.288-1.066.288-1.095a14.467,14.467,0,0,0,.317-1.614,12.54,12.54,0,0,1,.346-1.354,2.894,2.894,0,0,0,.144-.461l.058-.317c.058-.029.058-.144.086-.288a2.255,2.255,0,0,0,.2-.72l.2-.605a3.468,3.468,0,0,0,.115-.49l.058-.4.346-1.21.086-.461.576-1.5.029-.519.173-.605.144-.432.4-1.124.029-.749c0-.058.115-.2.259-.519a1.7,1.7,0,0,0,.144-.432l.173-.461c.086-.2.2-.72.432-1.412a2.4,2.4,0,0,1,.115-.346,2.339,2.339,0,0,0,.144-.4l.115-.519a2.006,2.006,0,0,1,.086-.4.63.63,0,0,0,.144-.4l.173-.663c.029-.173.2-.634.4-1.354a14.492,14.492,0,0,0,.547-1.815l.288-1.412a4.939,4.939,0,0,1,.375-1.095,8.163,8.163,0,0,1,.807-1.47,4.609,4.609,0,0,1,1.239-.807,5.053,5.053,0,0,1,2.017-.288,7.918,7.918,0,0,1,1.153.058h.576l3.573.086,1.614-.058H198.6l.317.058,1.009.2a3.594,3.594,0,0,1,1.354.663,3.879,3.879,0,0,1,.951.836c.317.4.461.778,1.066,2.939a11.486,11.486,0,0,0,.547,1.5c.144.317.2.576.259.663l.547,2.1.317.864.144.663a.644.644,0,0,0,.086.288,6.311,6.311,0,0,1,.4,1.181l.259,1.037.749,2.536.72,2.968.893,3.285.519,2.046.288.807.058.144a5.2,5.2,0,0,1,.288,1.066c.058.2.058.317.115.346l.2.72.058.4a2,2,0,0,0,.086.461c.058.029.058.086.058.144l.346,1.268.144.49.173.519.086.346.115.49a7.323,7.323,0,0,0,.4,1.383,3.675,3.675,0,0,1,.432,1.7ZM196.151,31.949a2.6,2.6,0,0,0-.058-.605,7.1,7.1,0,0,0-.346-1.556l-.259-.72-.115-.432-.231-1.066-.115-.49a3.29,3.29,0,0,1-.2-.605l-.086-.375-.115-.231-.058-.2-.2-.576-.231-.836a.846.846,0,0,0-.72-.576c-.288,0-.548.375-.864.98l-.086.288a10.918,10.918,0,0,0-.807,2.363,16.433,16.433,0,0,0-.461,1.758,1.538,1.538,0,0,0-.086.375l-.115.432-.2.663a.806.806,0,0,0-.058.317,1.654,1.654,0,0,1-.029.346v.547c0,.951.749,1.47,2.248,1.47,2.622,0,3.2-.2,3.2-1.268Z" transform="translate(-0.9 -0.8)" fill-rule="evenodd"/>
      </g>
    </g>
  </g>
</svg>
