<?xml version="1.0" encoding="UTF-8"?>
<svg id="Layer_2" data-name="Layer 2" xmlns="http://www.w3.org/2000/svg" viewBox="0 0 13.09 13.07">
  <defs>
    <style>
      .cls-1 {
        fill: #ffc017;
      }
    </style>
  </defs>
  <g id="Layer_1-2" data-name="Layer 1">
    <path class="cls-1" d="m8.47,8.75l-1.45,3.99c-.1.26-.39.39-.65.3-.14-.05-.24-.16-.3-.3l-1.44-3.99c-.05-.14-.16-.25-.3-.3L.34,7.01c-.26-.08-.4-.36-.32-.62.05-.15.17-.27.32-.32l3.99-1.44c.14-.05.25-.16.3-.3L6.08.33c.1-.26.39-.39.65-.3.14.05.24.16.3.3l1.44,3.99c.05.14.16.25.3.3l3.99,1.45c.26.1.39.39.3.65-.05.14-.16.24-.3.3l-3.99,1.44c-.14.05-.25.16-.3.3Z"/>
  </g>
</svg>